<?xml version="1.0" encoding="utf-8"?>
<!-- Generator: Adobe Illustrator 26.0.1, SVG Export Plug-In . SVG Version: 6.00 Build 0)  -->
<svg version="1.1" id="Layer_1" xmlns="http://www.w3.org/2000/svg" xmlns:xlink="http://www.w3.org/1999/xlink" x="0px" y="0px"
	 viewBox="0 0 2131 890.87" style="enable-background:new 0 0 2131 890.87;" xml:space="preserve">
<style type="text/css">
	.st0{clip-path:url(#XMLID_00000018921286871573946820000003387999909641127858_);fill:#C6404A;}
	.st1{clip-path:url(#XMLID_00000018921286871573946820000003387999909641127858_);}
	.st2{fill:#FFFFFF;}
	.st3{opacity:0.06;fill:#FAFAFB;}
	.st4{fill:none;stroke:#C6404A;stroke-width:15;stroke-miterlimit:10;}
	.st5{fill:#3E4546;}
</style>
<g>
	<g>
		<g>
			<g>
				<defs>
					<path id="XMLID_11_" d="M521.98,286.98C521.98,406.26,306,721,306,721S90.02,406.26,90.02,286.98C90.02,167.7,186.72,71,306,71
						S521.98,167.7,521.98,286.98z"/>
				</defs>
				<clipPath id="XMLID_00000003807749268144162330000003385823551572773511_">
					<use xlink:href="#XMLID_11_"  style="overflow:visible;"/>
				</clipPath>
			</g>
			<g>
				<defs>
					<path id="XMLID_10_" d="M521.98,286.98C521.98,406.26,306,721,306,721S90.02,406.26,90.02,286.98C90.02,167.7,186.72,71,306,71
						S521.98,167.7,521.98,286.98z"/>
				</defs>
				<use xlink:href="#XMLID_10_"  style="overflow:visible;fill:#D4494A;"/>
				<clipPath id="XMLID_00000150063725996489475450000014439938799690875531_">
					<use xlink:href="#XMLID_10_"  style="overflow:visible;"/>
				</clipPath>
				<path style="clip-path:url(#XMLID_00000150063725996489475450000014439938799690875531_);fill:#C6404A;" d="M250.52,635.8
					C279.95,685.11,306,721,306,721s215.98-314.74,215.98-434.02c0-6.26-0.33-12.45-0.85-18.58c-8.52,33.14-20.57,65.4-35.37,96.2
					c-40.88,85.1-101.34,139.62-165.73,208.66C299.28,595.52,273.12,614.93,250.52,635.8z"/>
				<g style="clip-path:url(#XMLID_00000150063725996489475450000014439938799690875531_);">
					<path class="st2" d="M235.28,163.63 M345.3,159.2l106.17-4.27l-0.3,1.84c-7.92,49.27-49.91,86.19-100.32,88.22l-18.5,0.74
						l-30.08,189.48c-2.98,22.1-5.88,46.11-5.07,66.15c1,24.81,13.23,40.56,43.15,39.36c13.51-0.54,68.38,0.2,79.88-2.17
						l-48.48,85.97c-16.18,6.39-45.94,11.41-72.97,12.49c-77.21,3.11-113.65-37.48-115.8-90.91c-1.07-26.72,0.78-52.59,7.12-87.25
						l32.21-208.68l-63.7,2.56"/>
				</g>
			</g>
			<g>
				<defs>
					<path id="XMLID_9_" d="M521.98,286.98C521.98,406.26,306,721,306,721S90.02,406.26,90.02,286.98C90.02,167.7,186.72,71,306,71
						S521.98,167.7,521.98,286.98z"/>
				</defs>
				<clipPath id="XMLID_00000031198778053887035640000016497502170539978629_">
					<use xlink:href="#XMLID_9_"  style="overflow:visible;"/>
				</clipPath>
			</g>
		</g>
		<path id="XMLID_1_" class="st2" d="M139.1,253.36l234.44-9.43c46.4-1.87,82.5-40.99,80.63-87.39l-0.07-1.71l-235.5,9.48
			c-45.81,1.84-81.46,40.48-79.61,86.29L139.1,253.36z"/>
		<path class="st3" d="M127.04,305.95c0-103.62,84-187.62,187.62-187.62c60.57,0,114.42,28.71,148.73,73.25
			c-32.4-56.24-93.12-94.11-162.69-94.11c-103.62,0-187.62,84-187.62,187.62c0,43.05,14.51,82.71,38.9,114.37
			C136.11,371.93,127.04,340,127.04,305.95z"/>
	</g>
	<path class="st4" d="M337.99,689.59c30.4,6.93,51.78,23.37,51.78,42.55c0,25.44-37.61,46.06-84,46.06s-84-20.62-84-46.06
		c0-18.76,20.44-34.9,49.78-42.08"/>
	<g>
		<path class="st5" d="M547.5,549L518,627h-61l136.5-337h73l3,337H609l1-78H547.5z M612,503l1.5-74.5c0.5-20.5,2.5-56,3-81.5h-1
			c-8,25.5-19,62.5-26,81l-27,75H612z"/>
		<path class="st5" d="M769,290h62.5l-54,282.5h82L849,627H704.5L769,290z"/>
		<path class="st5" d="M953.99,549l-29.5,78h-61l136.5-337h73l3,337h-60.5l1-78H953.99z M1018.49,503l1.5-74.5
			c0.5-20.5,2.5-56,3-81.5h-1c-8,25.5-19,62.5-26,81l-27,75H1018.49z"/>
		<path class="st5" d="M1173.99,294.5c17.5-3.5,40.5-6,65-6c27.5,0,56.5,4.5,76,23.5c14.5,13.5,20.5,32.5,20.5,53.5
			c0,41-29,74.5-64.5,85.5v2c33.5,11.5,44.5,43,44.5,72c0,30-15.5,57-36,74c-24,19.5-58,29.5-105.5,29.5c-32,0-48-1.5-62.5-4.5
			L1173.99,294.5z M1178.99,578.5c4.5,1,10,1,15.5,1c36,0,59.5-25.5,59.5-60.5c0-28.5-14.5-46.5-43-46.5h-11L1178.99,578.5z
			 M1208.99,426h9c36,0,57-22.5,57-55c0-17.5-8-36.5-32.5-36.5c-6,0-12.5,0-17,1.5L1208.99,426z"/>
		<path class="st5" d="M1404.49,290h61l-30.5,158h1.5c10.5-21,19-35,28-50.5l63-107.5h68l-102,149l38.5,188h-65.5l-21.5-143
			l-22,30.5l-22,112.5h-61L1404.49,290z"/>
	</g>
</g>
</svg>
